<svg xmlns="http://www.w3.org/2000/svg" version="1.1" xmlns:xlink="http://www.w3.org/1999/xlink" xmlns:svgjs="http://svgjs.dev/svgjs" width="128" height="128" viewBox="0 0 128 128"><g transform="matrix(0.8046875,0,0,0.8046875,12.333870967741937,12.333870967741937)"><svg viewBox="0 0 155 155" data-background-color="#000000" preserveAspectRatio="xMidYMid meet" height="128" width="128" xmlns="http://www.w3.org/2000/svg" xmlns:xlink="http://www.w3.org/1999/xlink"><g id="tight-bounds" transform="matrix(1,0,0,1,0.25,0.25)"><svg viewBox="0 0 154.5 154.5" height="154.5" width="154.5"><g><svg></svg></g><g><svg viewBox="0 0 154.5 154.5" height="154.5" width="154.5"><g transform="matrix(1,0,0,1,52.864347459183676,47.746371)"><svg viewBox="0 0 48.77130508163265 59.00725799999999" height="59.00725799999999" width="48.77130508163265"><g><svg viewBox="0 0 48.77130508163265 59.00725799999999" height="59.00725799999999" width="48.77130508163265"><g><svg viewBox="0 0 48.77130508163265 59.00725799999999" height="59.00725799999999" width="48.77130508163265"><g id="textblocktransform"><svg viewBox="0 0 48.77130508163265 59.00725799999999" height="59.00725799999999" width="48.77130508163265" id="textblock"><g><svg viewBox="0 0 48.77130508163265 59.00725799999999" height="59.00725799999999" width="48.77130508163265"><g transform="matrix(1,0,0,1,0,0)"><svg width="48.77130508163265" viewBox="1.05 -34.3 28.349999999999998 34.3" height="59.00725799999999" data-palette-color="#89939e"><path d="M1.05 0L1.05-2.75 20.65-29.55 2.35-29.55 2.35-34.3 28.95-34.3 28.95-31.55 9.35-4.75 29.4-4.75 29.4 0 1.05 0Z" opacity="1" transform="matrix(1,0,0,1,0,0)" fill="#000000" class="wordmark-text-0" data-fill-palette-color="primary" id="text-0"></path></svg></g></svg></g></svg></g></svg></g></svg></g></svg></g><path d="M52.864 41.746L52.864 1 101.636 1 101.636 41.746 96.314 41.746 96.314 6.321 58.186 6.321 58.186 41.746 52.864 41.746M52.864 112.754L52.864 153.5 101.636 153.5 101.636 112.754 96.314 112.754 96.314 148.179 58.186 148.179 58.186 112.754 52.864 112.754" fill="#000000" stroke="transparent" data-fill-palette-color="primary"></path></svg></g><defs></defs></svg><rect width="154.5" height="154.5" fill="none" stroke="none" visibility="hidden"></rect></g></svg></g></svg>