<svg xmlns="http://www.w3.org/2000/svg" version="1.1" xmlns:xlink="http://www.w3.org/1999/xlink" xmlns:svgjs="http://svgjs.dev/svgjs" width="2000" height="1247" viewBox="0 0 2000 1247"><g transform="matrix(1,0,0,1,-1.2121212121212466,0.504858299595071)"><svg viewBox="0 0 396 247" data-background-color="#000000" preserveAspectRatio="xMidYMid meet" height="1247" width="2000" xmlns="http://www.w3.org/2000/svg" xmlns:xlink="http://www.w3.org/1999/xlink"><g id="tight-bounds" transform="matrix(1,0,0,1,0.2400000000000091,-0.09999999999999432)"><svg viewBox="0 0 395.52 247.2" height="247.2" width="395.52"><g><svg></svg></g><g><svg viewBox="0 0 395.52 247.2" height="247.2" width="395.52"><g transform="matrix(1,0,0,1,75.54432000000001,69.45381265822786)"><svg viewBox="0 0 244.43135999999996 108.29237468354428" height="108.29237468354428" width="244.43135999999996"><g><svg viewBox="0 0 244.43135999999996 108.29237468354428" height="108.29237468354428" width="244.43135999999996"><g><svg viewBox="0 0 244.43135999999996 108.29237468354428" height="108.29237468354428" width="244.43135999999996"><g><svg viewBox="0 0 244.43135999999996 108.29237468354428" height="108.29237468354428" width="244.43135999999996"><g id="textblocktransform"><svg viewBox="0 0 244.43135999999996 108.29237468354428" height="108.29237468354428" width="244.43135999999996" id="textblock"><g><svg viewBox="0 0 244.43135999999996 108.29237468354428" height="108.29237468354428" width="244.43135999999996"><g transform="matrix(1,0,0,1,0,0)"><svg width="244.43135999999996" viewBox="1.0499999523162842 -36.150001525878906 82.94999694824219 36.75" height="108.29237468354428" data-palette-color="#89939e"><path d="M1.05 0L1.05-2.75 20.65-29.55 2.35-29.55 2.35-34.3 28.95-34.3 28.95-31.55 9.35-4.75 29.4-4.75 29.4 0 1.05 0ZM40.75 0.6Q37.5 0.6 34.87-1 32.25-2.6 32.25-6.8L32.25-6.8Q32.25-11.85 36.65-13.8 41.05-15.75 49.25-15.75L49.25-15.75 49.25-18.35Q49.25-20.5 48.12-21.63 47-22.75 43.95-22.75L43.95-22.75Q41-22.75 39.77-21.7 38.55-20.65 38.55-19.15L38.55-19.15 38.55-18.5 33.55-18.5Q33.5-18.8 33.5-19.6L33.5-19.6Q33.5-23.05 36.4-24.98 39.3-26.9 44.15-26.9L44.15-26.9Q49.25-26.9 51.82-24.8 54.4-22.7 54.4-18.85L54.4-18.85 54.4-5.4Q54.4-4.5 54.9-4.08 55.4-3.65 56.15-3.65L56.15-3.65 57.95-3.65 57.95-0.2Q56.65 0.45 54.4 0.45L54.4 0.45Q52.6 0.45 51.37-0.53 50.15-1.5 49.75-3.2L49.75-3.2 49.4-3.2Q48-1.4 45.82-0.4 43.65 0.6 40.75 0.6L40.75 0.6ZM42.25-3.6Q45.2-3.6 47.22-5.38 49.25-7.15 49.25-10.25L49.25-10.25 49.25-11.85Q43.55-11.85 40.55-10.88 37.55-9.9 37.55-7.2L37.55-7.2Q37.55-5.35 38.72-4.48 39.9-3.6 42.25-3.6L42.25-3.6ZM61.74 0L61.74-36.15 66.89-36.15 66.89-14.15 77.3-26.3 83.5-26.3 74.55-16.05 84 0 78.05 0 71.3-12.3 66.89-8.1 66.89 0 61.74 0Z" opacity="1" transform="matrix(1,0,0,1,0,0)" fill="#ffffff" class="wordmark-text-0" data-fill-palette-color="primary" id="text-0"></path></svg></g></svg></g></svg></g></svg></g></svg></g></svg></g></svg></g><path d="M231.746 63.454L231.746 13.441 11.429 13.441 11.429 233.759 231.746 233.759 231.746 183.746 221.98 183.746 221.98 223.993 21.195 223.993 21.195 23.207 221.98 23.207 221.98 63.454Z" fill="#ffffff" stroke="transparent" data-fill-palette-color="primary"></path></svg></g><defs></defs></svg><rect width="395.52" height="247.2" fill="none" stroke="none" visibility="hidden"></rect></g></svg></g></svg>